<svg version="1.0" xmlns="http://www.w3.org/2000/svg"
viewBox="0 0 5000 5000">
<g transform="rotate(180, 2630, 6000) scale(1.2)">
<path fill="black" d="M617 9862 c-48 -53 -97 -284 -97 -457 0 -241 66 -449 196 -616 l43
-56 -34 -79 c-104 -241 -164 -602 -151 -912 17 -433 169 -787 465 -1082 151
-151 271 -238 446 -324 264 -130 524 -190 815 -190 526 2 998 210 1334 589
193 219 312 462 369 755 30 156 32 547 4 710 -33 186 -83 359 -141 486 l-33
70 27 31 c62 69 138 225 171 350 30 114 37 319 15 454 -18 104 -58 242 -78
266 -18 22 -48 15 -58 -14 -54 -152 -239 -398 -393 -520 l-69 -55 -26 25 c-84
78 -328 216 -482 271 -390 141 -841 148 -1230 20 -185 -61 -374 -165 -503
-276 l-57 -50 -70 52 c-87 65 -214 198 -276 292 -27 39 -72 117 -100 172 -27
55 -55 101 -60 103 -6 2 -18 -5 -27 -15z"/>
<path fill="#db2c24" stroke="black" d="M644 9599 c-17 -19 -19 -38 -19 -203 0 -193 5 -220 63 -366 48 -123
143 -240 237 -295 36 -22 58 -27 113 -27 80 -1 110 12 178 79 70 69 115 157
115 230 1 69 -12 83 -105 112 -170 52 -344 196 -476 392 -36 53 -76 99 -85 99
-1 0 -10 -9 -21 -21z"/>
<path fill="#db2c24" stroke="black" d="M3896 9605 c-10 -10 -50 -61 -90 -114 -137 -180 -296 -310 -436 -356
-89 -29 -127 -52 -132 -78 -3 -14 3 -54 12 -90 25 -96 107 -199 192 -243 34
-18 146 -23 169 -8 8 5 20 9 26 10 22 4 111 80 154 131 39 47 119 198 119 225
0 8 4 18 9 24 26 28 49 288 37 407 -5 39 -15 76 -25 88 -16 20 -18 21 -35 4z"/>
<path fill="#db2c24" stroke="black" d="M2005 9565 c-38 -6 -99 -20 -135 -30 -36 -10 -77 -20 -93 -22 -15 -3
-30 -9 -33 -14 -3 -5 -16 -9 -30 -9 -13 0 -24 -4 -24 -10 0 -5 -9 -10 -20 -10
-26 0 -207 -91 -285 -143 -76 -50 -125 -96 -125 -117 0 -18 34 -50 53 -50 20
0 76 -59 83 -87 6 -21 2 -75 -8 -124 -11 -48 -78 -160 -124 -205 -97 -96 -214
-127 -329 -88 -73 24 -96 17 -122 -39 -58 -122 -107 -318 -133 -532 -15 -120
-8 -520 10 -579 6 -21 13 -46 15 -56 9 -45 43 -167 55 -195 44 -103 80 -179
106 -225 71 -121 191 -266 303 -364 31 -26 68 -58 82 -71 78 -68 352 -225 392
-225 7 0 17 -4 22 -9 26 -24 264 -86 423 -110 89 -13 348 -14 423 -1 30 5 68
11 84 13 154 23 365 94 513 173 343 182 628 504 737 834 15 47 32 94 36 105 5
11 10 34 12 50 2 17 6 37 9 45 35 96 45 469 18 650 -37 237 -83 411 -138 512
-24 46 -58 70 -71 51 -11 -17 -113 -43 -167 -43 -58 0 -132 21 -167 48 -113
87 -189 205 -202 315 -11 88 3 111 91 153 81 38 89 54 53 93 -49 52 -295 192
-379 215 -14 4 -34 11 -45 16 -54 24 -142 46 -350 89 -68 13 -453 11 -540 -4z
"/>
<path fill="black" d="M1216 8228 c-35 -50 0 -118 60 -118 32 0 176 -53 230 -85 50 -30 54
-42 20 -74 -66 -62 -103 -235 -76 -352 32 -137 128 -239 225 -239 116 0 224
139 233 300 2 41 -1 93 -7 115 -12 46 -1 66 24 41 27 -27 64 -31 92 -9 67 50
46 100 -78 183 -163 108 -344 188 -550 240 -105 27 -153 26 -173 -2z"/>
<path fill="black" d="M3150 8215 c-231 -67 -358 -123 -507 -221 -121 -81 -146 -123 -104
-175 23 -29 81 -31 111 -4 11 10 23 15 26 12 4 -3 2 -37 -3 -74 -30 -204 85
-394 237 -393 74 1 163 79 202 179 17 45 22 77 22 156 0 117 -22 185 -81 254
-29 35 -33 45 -22 52 63 43 230 109 274 109 59 0 94 69 59 118 -22 31 -74 28
-214 -13z"/>
<path fill="black" d="M1350 7270 c-29 -29 -25 -57 21 -130 160 -251 434 -459 699 -532 122
-33 330 -33 445 0 265 77 513 264 676 512 57 87 64 130 24 156 -35 23 -54 12
-137 -72 -143 -148 -313 -256 -500 -320 l-113 -38 -170 -1 c-202 0 -263 14
-441 100 -133 64 -241 143 -356 258 -91 92 -113 102 -148 67z"/>
</g>
</svg>
